{"accessors" : [{"bufferView" : 0, "byteOffset" : 0, "componentType" : 5123, "count" : 3867, "type" : "SCALAR", "max" : [945], "min" : [0]}, {"bufferView" : 1, "byteOffset" : 0, "componentType" : 5126, "count" : 946, "type" : "VEC3", "max" : [1.7712748050689697, 2.9958436489105225, 0.7954925894737244], "min" : [-1.764973521232605, 0.4407435357570648, -0.6085073351860046], "name" : "POSITION"}, {"bufferView" : 1, "byteOffset" : 12, "componentType" : 5126, "count" : 946, "type" : "VEC3", "max" : [0.9999276399612427, 0.9996137619018555, 0.9999940395355225], "min" : [-0.9999456405639648, -0.9995901584625244, -0.9999656677246094], "name" : "NORMAL"}, {"bufferView" : 1, "byteOffset" : 24, "componentType" : 5126, "count" : 946, "type" : "VEC2", "max" : [1.5525000095367432, 2.746999979019165], "min" : [-1.6722999811172485, 0.3975999355316162], "name" : "TEXCOORD_0"}, {"bufferView" : 0, "byteOffset" : 7736, "componentType" : 5123, "count" : 147, "type" : "SCALAR", "max" : [34], "min" : [0]}, {"bufferView" : 2, "byteOffset" : 0, "componentType" : 5126, "count" : 35, "type" : "VEC3", "max" : [0.1220213919878006, 2.3541436195373535, 0.3274925947189331], "min" : [-0.7266786098480225, 1.9026434421539307, -0.24610744416713715], "name" : "POSITION"}, {"bufferView" : 2, "byteOffset" : 12, "componentType" : 5126, "count" : 35, "type" : "VEC3", "max" : [0.9364144206047058, -0.21553008258342743, 0.9474534392356873], "min" : [-0.9363662600517273, -0.9889935255050659, -0.5463637113571167], "name" : "NORMAL"}, {"bufferView" : 2, "byteOffset" : 24, "componentType" : 5126, "count" : 35, "type" : "VEC2", "max" : [1.5080000162124634, 2.603099822998047], "min" : [1.3177000284194946, 2.424299955368042], "name" : "TEXCOORD_0"}, {"bufferView" : 0, "byteOffset" : 8032, "componentType" : 5123, "count" : 147, "type" : "SCALAR", "max" : [34], "min" : [0]}, {"bufferView" : 3, "byteOffset" : 0, "componentType" : 5126, "count" : 35, "type" : "VEC3", "max" : [0.7280214428901672, 2.3541436195373535, 0.3274925947189331], "min" : [-0.1206786036491394, 1.9026434421539307, -0.24610744416713715], "name" : "POSITION"}, {"bufferView" : 3, "byteOffset" : 12, "componentType" : 5126, "count" : 35, "type" : "VEC3", "max" : [0.9364144206047058, -0.21553008258342743, 0.9474534392356873], "min" : [-0.9363662600517273, -0.9889935255050659, -0.5463637113571167], "name" : "NORMAL"}, {"bufferView" : 3, "byteOffset" : 24, "componentType" : 5126, "count" : 35, "type" : "VEC2", "max" : [1.5080000162124634, 2.603099822998047], "min" : [1.3177000284194946, 2.424299955368042], "name" : "TEXCOORD_0"}, {"bufferView" : 0, "byteOffset" : 8328, "componentType" : 5123, "count" : 333, "type" : "SCALAR", "max" : [104], "min" : [0]}, {"bufferView" : 4, "byteOffset" : 0, "componentType" : 5126, "count" : 105, "type" : "VEC3", "max" : [0.5351213812828064, 1.9089435338974, 0.45529255270957947], "min" : [-0.5280786156654358, 0.8934434056282043, -0.13330745697021484], "name" : "POSITION"}, {"bufferView" : 4, "byteOffset" : 12, "componentType" : 5126, "count" : 105, "type" : "VEC3", "max" : [0.9890281558036804, 0.9996194839477539, 1.0000044107437134], "min" : [-0.9750345945358276, -0.9993221759796143, -0.9979642033576965], "name" : "NORMAL"}, {"bufferView" : 4, "byteOffset" : 24, "componentType" : 5126, "count" : 105, "type" : "VEC2", "max" : [1.117900013923645, 2.9946000576019287], "min" : [-1.486199975013733, 2.6958999633789062], "name" : "TEXCOORD_0"}, {"bufferView" : 0, "byteOffset" : 8996, "componentType" : 5123, "count" : 1104, "type" : "SCALAR", "max" : [325], "min" : [0]}, {"bufferView" : 5, "byteOffset" : 0, "componentType" : 5126, "count" : 326, "type" : "VEC3", "max" : [1.0964676141738892, 1.7673434019088745, 0.4708925187587738], "min" : [-1.0901663303375244, 4.344880653661676E-05, -0.15070763230323792], "name" : "POSITION"}, {"bufferView" : 5, "byteOffset" : 12, "componentType" : 5126, "count" : 326, "type" : "VEC3", "max" : [0.9999276399612427, 1.0000044107437134, 1.0000044107437134], "min" : [-0.9999381303787231, -1.0000044107437134, -1.0000044107437134], "name" : "NORMAL"}, {"bufferView" : 5, "byteOffset" : 24, "componentType" : 5126, "count" : 326, "type" : "VEC2", "max" : [1.742400050163269, 2.987499952316284], "min" : [-0.9890000224113464, 0.638200044631958], "name" : "TEXCOORD_0"}, {"bufferView" : 0, "byteOffset" : 11204, "componentType" : 5123, "count" : 378, "type" : "SCALAR", "max" : [81], "min" : [0]}, {"bufferView" : 6, "byteOffset" : 0, "componentType" : 5126, "count" : 82, "type" : "VEC3", "max" : [0.5099214911460876, 0.26044344902038574, 0.44599229097366333], "min" : [-0.5028786063194275, 4.344880653661676E-05, -0.12700772285461426], "name" : "POSITION"}, {"bufferView" : 6, "byteOffset" : 12, "componentType" : 5126, "count" : 82, "type" : "VEC3", "max" : [0.9952529072761536, 0.9983310103416443, 0.9996445178985596], "min" : [-0.9945094585418701, -0.6734417080879211, -0.9867035746574402], "name" : "NORMAL"}, {"bufferView" : 6, "byteOffset" : 24, "componentType" : 5126, "count" : 82, "type" : "VEC2", "max" : [-1.8848999738693237, 2.990499973297119], "min" : [-1.9249999523162842, 2.8866000175476074], "name" : "TEXCOORD_0"}, {"bufferView" : 0, "byteOffset" : 11960, "componentType" : 5123, "count" : 240, "type" : "SCALAR", "max" : [44], "min" : [0]}, {"bufferView" : 7, "byteOffset" : 0, "componentType" : 5126, "count" : 45, "type" : "VEC3", "max" : [0.24862141907215118, 1.753543734550476, 0.2518925368785858], "min" : [-0.241578608751297, 1.6680434942245483, -0.13330745697021484], "name" : "POSITION"}, {"bufferView" : 7, "byteOffset" : 12, "componentType" : 5126, "count" : 45, "type" : "VEC3", "max" : [0.9765633940696716, 0.9999927282333374, 0.9907809495925903], "min" : [-0.9765633940696716, -0.9680805206298828, -0.3996872305870056], "name" : "NORMAL"}, {"bufferView" : 7, "byteOffset" : 24, "componentType" : 5126, "count" : 45, "type" : "VEC2", "max" : [-0.19370000064373016, 2.673099994659424], "min" : [-0.24240000545978546, 2.638200044631958], "name" : "TEXCOORD_0"}, {"bufferView" : 0, "byteOffset" : 12440, "componentType" : 5123, "count" : 162, "type" : "SCALAR", "max" : [85], "min" : [0]}, {"bufferView" : 8, "byteOffset" : 0, "componentType" : 5126, "count" : 86, "type" : "VEC3", "max" : [0.746621310710907, 1.3041435480117798, 0.3595924377441406], "min" : [-0.7395786046981812, 0.8052434325218201, -0.3085075318813324], "name" : "POSITION"}, {"bufferView" : 8, "byteOffset" : 12, "componentType" : 5126, "count" : 86, "type" : "VEC3", "max" : [1.0000044107437134, 0.20557565987110138, 1.0000044107437134], "min" : [-1.0000044107437134, -1.0000044107437134, -1.0000044107437134], "name" : "NORMAL"}, {"bufferView" : 8, "byteOffset" : 24, "componentType" : 5126, "count" : 86, "type" : "VEC2", "max" : [1.7848999500274658, 2.9998998641967773], "min" : [-1.1990000009536743, 1.6299999952316284], "name" : "TEXCOORD_0"}, {"bufferView" : 0, "byteOffset" : 12764, "componentType" : 5123, "count" : 108, "type" : "SCALAR", "max" : [83], "min" : [0]}, {"bufferView" : 9, "byteOffset" : 0, "componentType" : 5126, "count" : 84, "type" : "VEC3", "max" : [0.5102214217185974, 2.707843542098999, 0.38659271597862244], "min" : [-0.49057862162590027, 2.5974435806274414, 0.3211927115917206], "name" : "POSITION"}, {"bufferView" : 9, "byteOffset" : 12, "componentType" : 5126, "count" : 84, "type" : "VEC3", "max" : [1.0000044107437134, 0.5458831191062927, 0.9174420833587646], "min" : [-1.0000044107437134, -0.5025111436843872, -0.8935598731040955], "name" : "NORMAL"}, {"bufferView" : 9, "byteOffset" : 24, "componentType" : 5126, "count" : 84, "type" : "VEC2", "max" : [0.3041999936103821, 2.8301000595092773], "min" : [0.2003999948501587, 2.8042001724243164], "name" : "TEXCOORD_0"}, {"bufferView" : 0, "byteOffset" : 12980, "componentType" : 5123, "count" : 192, "type" : "SCALAR", "max" : [47], "min" : [0]}, {"bufferView" : 10, "byteOffset" : 0, "componentType" : 5126, "count" : 48, "type" : "VEC3", "max" : [0.12472138553857803, 2.740243434906006, 0.3490927219390869], "min" : [-0.7236785888671875, 2.294743537902832, -0.2266073226928711], "name" : "POSITION"}, {"bufferView" : 10, "byteOffset" : 12, "componentType" : 5126, "count" : 48, "type" : "VEC3", "max" : [0.9510918259620667, 0.9737762808799744, 0.9064363241195679], "min" : [-0.9510918259620667, 0.23375071585178375, -0.5136792659759521], "name" : "NORMAL"}, {"bufferView" : 10, "byteOffset" : 24, "componentType" : 5126, "count" : 48, "type" : "VEC2", "max" : [0.5062000155448914, 2.602799892425537], "min" : [0.3188000023365021, 2.4351999759674072], "name" : "TEXCOORD_0"}, {"bufferView" : 0, "byteOffset" : 13364, "componentType" : 5123, "count" : 192, "type" : "SCALAR", "max" : [47], "min" : [0]}, {"bufferView" : 11, "byteOffset" : 0, "componentType" : 5126, "count" : 48, "type" : "VEC3", "max" : [0.7301214337348938, 2.740243434906006, 0.3490927219390869], "min" : [-0.11857861280441284, 2.294743537902832, -0.2266073226928711], "name" : "POSITION"}, {"bufferView" : 11, "byteOffset" : 12, "componentType" : 5126, "count" : 48, "type" : "VEC3", "max" : [0.9509446024894714, 0.9737846255302429, 0.9062261581420898], "min" : [-0.9511933922767639, 0.23533864319324493, -0.5138790607452393], "name" : "NORMAL"}, {"bufferView" : 11, "byteOffset" : 24, "componentType" : 5126, "count" : 48, "type" : "VEC2", "max" : [0.5062000155448914, 2.602799892425537], "min" : [0.3188000023365021, 2.4351999759674072], "name" : "TEXCOORD_0"}, {"bufferView" : 0, "byteOffset" : 13748, "componentType" : 5123, "count" : 294, "type" : "SCALAR", "max" : [52], "min" : [0]}, {"bufferView" : 12, "byteOffset" : 0, "componentType" : 5126, "count" : 53, "type" : "VEC3", "max" : [0.7184213995933533, 2.713243246078491, 0.45289263129234314], "min" : [-0.08527860790491104, 1.9422434568405151, -0.3049073815345764], "name" : "POSITION"}, {"bufferView" : 12, "byteOffset" : 12, "componentType" : 5126, "count" : 53, "type" : "VEC3", "max" : [0.9865897297859192, 0.9546471238136292, 0.9708231687545776], "min" : [-0.9837490320205688, -0.9545987248420715, -0.9847408533096313], "name" : "NORMAL"}, {"bufferView" : 12, "byteOffset" : 24, "componentType" : 5126, "count" : 53, "type" : "VEC2", "max" : [0.0560000017285347, 2.8524999618530273], "min" : [0.013700000010430813, 2.7715001106262207], "name" : "TEXCOORD_0"}, {"bufferView" : 0, "byteOffset" : 14336, "componentType" : 5123, "count" : 294, "type" : "SCALAR", "max" : [52], "min" : [0]}, {"bufferView" : 13, "byteOffset" : 0, "componentType" : 5126, "count" : 53, "type" : "VEC3", "max" : [0.11752140522003174, 2.713243246078491, 0.4519926607608795], "min" : [-0.683478593826294, 1.9422434568405151, -0.3058074116706848], "name" : "POSITION"}, {"bufferView" : 13, "byteOffset" : 12, "componentType" : 5126, "count" : 53, "type" : "VEC3", "max" : [0.9830043911933899, 0.9547245502471924, 0.9707444310188293], "min" : [-0.9857903718948364, -0.954677402973175, -0.9848759770393372], "name" : "NORMAL"}, {"bufferView" : 13, "byteOffset" : 24, "componentType" : 5126, "count" : 53, "type" : "VEC2", "max" : [0.0560000017285347, 2.8524999618530273], "min" : [0.013700000010430813, 2.7715001106262207], "name" : "TEXCOORD_0"}, {"bufferView" : 0, "byteOffset" : 14924, "componentType" : 5123, "count" : 36, "type" : "SCALAR", "max" : [13], "min" : [0]}, {"bufferView" : 14, "byteOffset" : 0, "componentType" : 5126, "count" : 14, "type" : "VEC3", "max" : [0.3689213693141937, 2.464843511581421, 0.45709267258644104], "min" : [-0.35737860202789307, 2.190643548965454, 0.40669265389442444], "name" : "POSITION"}, {"bufferView" : 14, "byteOffset" : 12, "componentType" : 5126, "count" : 14, "type" : "VEC3", "max" : [0.3484978973865509, 0.19612033665180206, 0.9971711039543152], "min" : [-0.3483494222164154, -0.19611524045467377, 0.9343124628067017], "name" : "NORMAL"}, {"bufferView" : 14, "byteOffset" : 24, "componentType" : 5126, "count" : 14, "type" : "VEC2", "max" : [0.8303467035293579, 1.0817596912384033], "min" : [0.1696532666683197, 0.010240316390991211], "name" : "TEXCOORD_0"}], "asset" : {"generator" : "Aspose.3D 24.6.0", "version" : "2.0"}, "buffers" : [{"uri" : "data:application/octet-stream;base64,", "byteLength" : 77776}], "bufferViews" : [{"buffer" : 0, "byteOffset" : 0, "byteLength" : 14996, "target" : 34963}, {"buffer" : 0, "byteOffset" : 15000, "byteLength" : 30272, "byteStride" : 32, "target" : 34962}, {"buffer" : 0, "byteOffset" : 45276, "byteLength" : 1120, "byteStride" : 32, "target" : 34962}, {"buffer" : 0, "byteOffset" : 46400, "byteLength" : 1120, "byteStride" : 32, "target" : 34962}, {"buffer" : 0, "byteOffset" : 47524, "byteLength" : 3360, "byteStride" : 32, "target" : 34962}, {"buffer" : 0, "byteOffset" : 50888, "byteLength" : 10432, "byteStride" : 32, "target" : 34962}, {"buffer" : 0, "byteOffset" : 61324, "byteLength" : 2624, "byteStride" : 32, "target" : 34962}, {"buffer" : 0, "byteOffset" : 63952, "byteLength" : 1440, "byteStride" : 32, "target" : 34962}, {"buffer" : 0, "byteOffset" : 65396, "byteLength" : 2752, "byteStride" : 32, "target" : 34962}, {"buffer" : 0, "byteOffset" : 68152, "byteLength" : 2688, "byteStride" : 32, "target" : 34962}, {"buffer" : 0, "byteOffset" : 70844, "byteLength" : 1536, "byteStride" : 32, "target" : 34962}, {"buffer" : 0, "byteOffset" : 72384, "byteLength" : 1536, "byteStride" : 32, "target" : 34962}, {"buffer" : 0, "byteOffset" : 73924, "byteLength" : 1696, "byteStride" : 32, "target" : 34962}, {"buffer" : 0, "byteOffset" : 75624, "byteLength" : 1696, "byteStride" : 32, "target" : 34962}, {"buffer" : 0, "byteOffset" : 77324, "byteLength" : 448, "byteStride" : 32, "target" : 34962}], "images" : [{"uri" : "data:image/png;base64,"}, {"uri" : "data:image/png;base64,"}], "materials" : [{"name" : "Sponge", "pbrMetallicRoughness" : {"baseColorFactor" : [1, 1, 1, 1], "baseColorTexture" : {"index" : 0, "texCoord" : 0}, "metallicFactor" : 0, "roughnessFactor" : 1}, "emissiveFactor" : [0, 0, 0], "alphaMode" : "OPAQUE", "doubleSided" : true}, {"name" : "Right_Bottom_Eyelid", "pbrMetallicRoughness" : {"baseColorFactor" : [1, 1, 1, 1], "metallicFactor" : 0, "roughnessFactor" : 1}, "emissiveFactor" : [0, 0, 0], "alphaMode" : "OPAQUE", "doubleSided" : true}, {"name" : "Left_Bottom_Eyelid", "pbrMetallicRoughness" : {"baseColorFactor" : [1, 1, 1, 1], "metallicFactor" : 0, "roughnessFactor" : 1}, "emissiveFactor" : [0, 0, 0], "alphaMode" : "OPAQUE", "doubleSided" : true}, {"name" : "Other_Parts_Without_Outline", "pbrMetallicRoughness" : {"baseColorFactor" : [1, 1, 1, 1], "baseColorTexture" : {"index" : 0, "texCoord" : 0}, "metallicFactor" : 0, "roughnessFactor" : 1}, "emissiveFactor" : [0, 0, 0], "alphaMode" : "OPAQUE", "doubleSided" : true}, {"name" : "Other_Parts_With_Outline", "pbrMetallicRoughness" : {"baseColorFactor" : [1, 1, 1, 1], "baseColorTexture" : {"index" : 0, "texCoord" : 0}, "metallicFactor" : 0, "roughnessFactor" : 1}, "emissiveFactor" : [0, 0, 0], "alphaMode" : "OPAQUE", "doubleSided" : true}, {"name" : "Shoes", "pbrMetallicRoughness" : {"baseColorFactor" : [1, 1, 1, 1], "baseColorTexture" : {"index" : 0, "texCoord" : 0}, "metallicFactor" : 0, "roughnessFactor" : 1}, "emissiveFactor" : [0, 0, 0], "alphaMode" : "OPAQUE", "doubleSided" : true}, {"name" : "Tongue", "pbrMetallicRoughness" : {"baseColorFactor" : [1, 1, 1, 1], "metallicFactor" : 0, "roughnessFactor" : 1}, "emissiveFactor" : [0, 0, 0], "alphaMode" : "OPAQUE", "doubleSided" : true}, {"name" : "Pants", "pbrMetallicRoughness" : {"baseColorFactor" : [1, 1, 1, 1], "baseColorTexture" : {"index" : 0, "texCoord" : 0}, "metallicFactor" : 0, "roughnessFactor" : 1}, "emissiveFactor" : [0, 0, 0], "alphaMode" : "OPAQUE", "doubleSided" : true}, {"name" : "Eyelashes", "pbrMetallicRoughness" : {"baseColorFactor" : [1, 1, 1, 1], "baseColorTexture" : {"index" : 0, "texCoord" : 0}, "metallicFactor" : 0, "roughnessFactor" : 1}, "emissiveFactor" : [0, 0, 0], "alphaMode" : "OPAQUE", "doubleSided" : true}, {"name" : "Right_Top_Eyelid", "pbrMetallicRoughness" : {"baseColorFactor" : [1, 1, 1, 1], "baseColorTexture" : {"index" : 0, "texCoord" : 0}, "metallicFactor" : 0, "roughnessFactor" : 1}, "emissiveFactor" : [0, 0, 0], "alphaMode" : "OPAQUE", "doubleSided" : true}, {"name" : "Left_Top_Eyelid", "pbrMetallicRoughness" : {"baseColorFactor" : [1, 1, 1, 1], "baseColorTexture" : {"index" : 0, "texCoord" : 0}, "metallicFactor" : 0, "roughnessFactor" : 1}, "emissiveFactor" : [0, 0, 0], "alphaMode" : "OPAQUE", "doubleSided" : true}, {"name" : "Left_Eye", "pbrMetallicRoughness" : {"baseColorFactor" : [1, 1, 1, 1], "baseColorTexture" : {"index" : 0, "texCoord" : 0}, "metallicFactor" : 0, "roughnessFactor" : 1}, "emissiveFactor" : [0, 0, 0], "alphaMode" : "OPAQUE", "doubleSided" : true}, {"name" : "Right_Eye", "pbrMetallicRoughness" : {"baseColorFactor" : [1, 1, 1, 1], "baseColorTexture" : {"index" : 0, "texCoord" : 0}, "metallicFactor" : 0, "roughnessFactor" : 1}, "emissiveFactor" : [0, 0, 0], "alphaMode" : "OPAQUE", "doubleSided" : true}, {"name" : "Pupils", "pbrMetallicRoughness" : {"baseColorFactor" : [1, 1, 1, 1], "baseColorTexture" : {"index" : 1, "texCoord" : 0}, "metallicFactor" : 0, "roughnessFactor" : 1}, "emissiveFactor" : [0, 0, 0], "alphaMode" : "OPAQUE", "doubleSided" : true}], "meshes" : [{"primitives" : [{"attributes" : {"POSITION" : 1, "NORMAL" : 2, "TEXCOORD_0" : 3}, "indices" : 0, "material" : 0, "mode" : 4}]}, {"primitives" : [{"attributes" : {"POSITION" : 5, "NORMAL" : 6, "TEXCOORD_0" : 7}, "indices" : 4, "material" : 1, "mode" : 4}]}, {"primitives" : [{"attributes" : {"POSITION" : 9, "NORMAL" : 10, "TEXCOORD_0" : 11}, "indices" : 8, "material" : 2, "mode" : 4}]}, {"primitives" : [{"attributes" : {"POSITION" : 13, "NORMAL" : 14, "TEXCOORD_0" : 15}, "indices" : 12, "material" : 3, "mode" : 4}]}, {"primitives" : [{"attributes" : {"POSITION" : 17, "NORMAL" : 18, "TEXCOORD_0" : 19}, "indices" : 16, "material" : 4, "mode" : 4}]}, {"primitives" : [{"attributes" : {"POSITION" : 21, "NORMAL" : 22, "TEXCOORD_0" : 23}, "indices" : 20, "material" : 5, "mode" : 4}]}, {"primitives" : [{"attributes" : {"POSITION" : 25, "NORMAL" : 26, "TEXCOORD_0" : 27}, "indices" : 24, "material" : 6, "mode" : 4}]}, {"primitives" : [{"attributes" : {"POSITION" : 29, "NORMAL" : 30, "TEXCOORD_0" : 31}, "indices" : 28, "material" : 7, "mode" : 4}]}, {"primitives" : [{"attributes" : {"POSITION" : 33, "NORMAL" : 34, "TEXCOORD_0" : 35}, "indices" : 32, "material" : 8, "mode" : 4}]}, {"primitives" : [{"attributes" : {"POSITION" : 37, "NORMAL" : 38, "TEXCOORD_0" : 39}, "indices" : 36, "material" : 9, "mode" : 4}]}, {"primitives" : [{"attributes" : {"POSITION" : 41, "NORMAL" : 42, "TEXCOORD_0" : 43}, "indices" : 40, "material" : 10, "mode" : 4}]}, {"primitives" : [{"attributes" : {"POSITION" : 45, "NORMAL" : 46, "TEXCOORD_0" : 47}, "indices" : 44, "material" : 11, "mode" : 4}]}, {"primitives" : [{"attributes" : {"POSITION" : 49, "NORMAL" : 50, "TEXCOORD_0" : 51}, "indices" : 48, "material" : 12, "mode" : 4}]}, {"primitives" : [{"attributes" : {"POSITION" : 53, "NORMAL" : 54, "TEXCOORD_0" : 55}, "indices" : 52, "material" : 13, "mode" : 4}]}], "nodes" : [{"mesh" : 0, "name" : "Object_105"}, {"mesh" : 1, "name" : "Object_106"}, {"mesh" : 2, "name" : "Object_107"}, {"mesh" : 3, "name" : "Object_108"}, {"mesh" : 4, "name" : "Object_109"}, {"mesh" : 5, "name" : "Object_110"}, {"mesh" : 6, "name" : "Object_111"}, {"mesh" : 7, "name" : "Object_112"}, {"mesh" : 8, "name" : "Object_113"}, {"mesh" : 9, "name" : "Object_114"}, {"mesh" : 10, "name" : "Object_115"}, {"mesh" : 11, "name" : "Object_116"}, {"mesh" : 12, "name" : "Object_117"}, {"mesh" : 13, "name" : "Object_118"}, {"children" : [0, 1, 2, 3, 4, 5, 6, 7, 8, 9, 10, 11, 12, 13], "name" : "Object_5"}, {"children" : [14], "matrix" : [1, 0, 0, 0, 0, 1, -2.646977960169688E-23, 0, 0, 2.646977960169688E-23, 1, 0, 0, 0, 0, 1], "name" : "Spongebob Squarepants_arm"}, {"children" : [15], "matrix" : [100, 0, 0, 0, 0, -1.629206793918314E-05, -99.99999999999868, 0, 0, 99.99999999999868, -1.629206793918314E-05, 0, 0, 0, 0, 1], "name" : "Spongebob Squarepants"}, {"children" : [16], "name" : "RootNode"}, {"children" : [17], "matrix" : [0.009999999776482582, 0, 0, 0, 0, 0, 0.009999999776482582, 0, 0, -0.009999999776482582, 0, 0, 0, 0, 0, 1], "name" : "c59dd1dff3fc4d0b9c5f50c5f6409922.fbx"}, {"children" : [18], "matrix" : [1, 0, 0, 0, 0, 2.220446049250313E-16, -1, 0, 0, 1, 2.220446049250313E-16, 0, 0, 0, 0, 1], "name" : "Sketchfab_model"}], "samplers" : [{"magFilter" : 9729, "minFilter" : 9987, "wrapS" : 10497, "wrapT" : 10497}, {"magFilter" : 9729, "minFilter" : 9987, "wrapS" : 10497, "wrapT" : 10497}], "scene" : 0, "scenes" : [{"nodes" : [19]}], "textures" : [{"sampler" : 0, "source" : 0, "name" : ""}, {"sampler" : 1, "source" : 1, "name" : ""}]}